<mxfile host="Electron" modified="2024-05-18T08:47:17.860Z" agent="Mozilla/5.0 (Windows NT 10.0; Win64; x64) AppleWebKit/537.36 (KHTML, like Gecko) draw.io/24.4.0 Chrome/120.0.6099.109 Electron/28.1.0 Safari/537.36" etag="vknujY6ilRRTTyf-UW5C" version="24.4.0" type="device">
  <diagram name="Page-1" id="LOeZ1iJH1ZdRrt-AAD5Z">
    <mxGraphModel dx="2056" dy="1573" grid="1" gridSize="10" guides="1" tooltips="1" connect="1" arrows="1" fold="1" page="1" pageScale="1" pageWidth="1169" pageHeight="827" math="0" shadow="0">
      <root>
        <mxCell id="0" />
        <mxCell id="1" parent="0" />
        <mxCell id="IQUt191S6wUq-JM19sTi-1" value="" style="group" vertex="1" connectable="0" parent="1">
          <mxGeometry x="1770" y="29" width="1173" height="770" as="geometry" />
        </mxCell>
        <mxCell id="x_ISdP9tk19q-jWjNSfE-1" value="Books DS" style="shape=umlLifeline;perimeter=lifelinePerimeter;whiteSpace=wrap;html=1;container=0;dropTarget=0;collapsible=0;recursiveResize=0;outlineConnect=0;portConstraint=eastwest;newEdgeStyle={&quot;edgeStyle&quot;:&quot;elbowEdgeStyle&quot;,&quot;elbow&quot;:&quot;vertical&quot;,&quot;curved&quot;:0,&quot;rounded&quot;:0};" parent="IQUt191S6wUq-JM19sTi-1" vertex="1">
          <mxGeometry x="811" y="27" width="100" height="743" as="geometry" />
        </mxCell>
        <mxCell id="x_ISdP9tk19q-jWjNSfE-2" value="" style="html=1;points=[[0,0,0,0,5],[0,1,0,0,-5],[1,0,0,0,5],[1,1,0,0,-5]];perimeter=orthogonalPerimeter;outlineConnect=0;targetShapes=umlLifeline;portConstraint=eastwest;newEdgeStyle={&quot;curved&quot;:0,&quot;rounded&quot;:0};fillColor=#1ba1e2;container=0;fontColor=#ffffff;strokeColor=#006EAF;" parent="x_ISdP9tk19q-jWjNSfE-1" vertex="1">
          <mxGeometry x="45" y="320" width="10" height="50" as="geometry" />
        </mxCell>
        <mxCell id="x_ISdP9tk19q-jWjNSfE-3" value="" style="shape=umlLifeline;perimeter=lifelinePerimeter;whiteSpace=wrap;html=1;container=0;dropTarget=0;collapsible=0;recursiveResize=0;outlineConnect=0;portConstraint=eastwest;newEdgeStyle={&quot;curved&quot;:0,&quot;rounded&quot;:0};participant=umlActor;strokeWidth=1;" parent="IQUt191S6wUq-JM19sTi-1" vertex="1">
          <mxGeometry x="140" y="37" width="20" height="457" as="geometry" />
        </mxCell>
        <mxCell id="x_ISdP9tk19q-jWjNSfE-4" value="Member" style="text;html=1;align=center;verticalAlign=middle;resizable=0;points=[];autosize=1;strokeColor=none;fillColor=none;container=0;" parent="IQUt191S6wUq-JM19sTi-1" vertex="1">
          <mxGeometry x="115" width="70" height="30" as="geometry" />
        </mxCell>
        <mxCell id="x_ISdP9tk19q-jWjNSfE-5" value="" style="html=1;points=[[0,0,0,0,5],[0,1,0,0,-5],[1,0,0,0,5],[1,1,0,0,-5]];perimeter=orthogonalPerimeter;outlineConnect=0;targetShapes=umlLifeline;portConstraint=eastwest;newEdgeStyle={&quot;curved&quot;:0,&quot;rounded&quot;:0};container=0;fillColor=#1ba1e2;fontColor=#ffffff;strokeColor=#006EAF;" parent="IQUt191S6wUq-JM19sTi-1" vertex="1">
          <mxGeometry x="147" y="87" width="10" height="683" as="geometry" />
        </mxCell>
        <mxCell id="x_ISdP9tk19q-jWjNSfE-6" value="System menu" style="shape=umlLifeline;perimeter=lifelinePerimeter;whiteSpace=wrap;html=1;container=0;dropTarget=0;collapsible=0;recursiveResize=0;outlineConnect=0;portConstraint=eastwest;newEdgeStyle={&quot;edgeStyle&quot;:&quot;elbowEdgeStyle&quot;,&quot;elbow&quot;:&quot;vertical&quot;,&quot;curved&quot;:0,&quot;rounded&quot;:0};" parent="IQUt191S6wUq-JM19sTi-1" vertex="1">
          <mxGeometry x="532" y="27" width="100" height="590" as="geometry" />
        </mxCell>
        <mxCell id="x_ISdP9tk19q-jWjNSfE-7" value="" style="endArrow=classic;html=1;rounded=0;" parent="IQUt191S6wUq-JM19sTi-1" edge="1">
          <mxGeometry width="50" height="50" relative="1" as="geometry">
            <mxPoint x="157" y="266" as="sourcePoint" />
            <mxPoint x="577" y="266" as="targetPoint" />
          </mxGeometry>
        </mxCell>
        <mxCell id="x_ISdP9tk19q-jWjNSfE-8" value="Choose order a book&amp;nbsp;option from the menu&lt;span style=&quot;background-color: initial;&quot;&gt;(choice)&lt;/span&gt;" style="text;html=1;align=center;verticalAlign=middle;resizable=0;points=[];autosize=1;strokeColor=none;fillColor=none;" parent="IQUt191S6wUq-JM19sTi-1" vertex="1">
          <mxGeometry x="220" y="237" width="300" height="30" as="geometry" />
        </mxCell>
        <mxCell id="x_ISdP9tk19q-jWjNSfE-9" value="Input/output form" style="shape=umlLifeline;perimeter=lifelinePerimeter;whiteSpace=wrap;html=1;container=0;dropTarget=0;collapsible=0;recursiveResize=0;outlineConnect=0;portConstraint=eastwest;newEdgeStyle={&quot;edgeStyle&quot;:&quot;elbowEdgeStyle&quot;,&quot;elbow&quot;:&quot;vertical&quot;,&quot;curved&quot;:0,&quot;rounded&quot;:0};" parent="IQUt191S6wUq-JM19sTi-1" vertex="1">
          <mxGeometry x="682" y="27" width="100" height="743" as="geometry" />
        </mxCell>
        <mxCell id="x_ISdP9tk19q-jWjNSfE-10" value="" style="html=1;points=[[0,0,0,0,5],[0,1,0,0,-5],[1,0,0,0,5],[1,1,0,0,-5]];perimeter=orthogonalPerimeter;outlineConnect=0;targetShapes=umlLifeline;portConstraint=eastwest;newEdgeStyle={&quot;curved&quot;:0,&quot;rounded&quot;:0};fillColor=#1ba1e2;container=0;fontColor=#ffffff;strokeColor=#006EAF;" parent="x_ISdP9tk19q-jWjNSfE-9" vertex="1">
          <mxGeometry x="45" y="90" width="10" height="580" as="geometry" />
        </mxCell>
        <mxCell id="x_ISdP9tk19q-jWjNSfE-11" value="enter ordered book info(book info)" style="text;html=1;align=center;verticalAlign=middle;resizable=0;points=[];autosize=1;strokeColor=none;fillColor=none;" parent="IQUt191S6wUq-JM19sTi-1" vertex="1">
          <mxGeometry x="258" y="265" width="200" height="30" as="geometry" />
        </mxCell>
        <mxCell id="x_ISdP9tk19q-jWjNSfE-14" value="order confirmation message(confirmation message)" style="text;html=1;align=center;verticalAlign=middle;resizable=0;points=[];autosize=1;strokeColor=none;fillColor=none;rotation=0;" parent="IQUt191S6wUq-JM19sTi-1" vertex="1">
          <mxGeometry x="212" y="384" width="300" height="30" as="geometry" />
        </mxCell>
        <mxCell id="x_ISdP9tk19q-jWjNSfE-16" value="specify delivary date(date)" style="text;align=center;verticalAlign=middle;resizable=0;points=[];autosize=1;strokeColor=none;fillColor=none;" parent="IQUt191S6wUq-JM19sTi-1" vertex="1">
          <mxGeometry x="290" y="427" width="160" height="30" as="geometry" />
        </mxCell>
        <mxCell id="x_ISdP9tk19q-jWjNSfE-17" value="alt" style="text;html=1;align=center;verticalAlign=middle;resizable=0;points=[];autosize=1;strokeColor=none;fillColor=none;" parent="IQUt191S6wUq-JM19sTi-1" vertex="1">
          <mxGeometry x="3" y="374" width="40" height="30" as="geometry" />
        </mxCell>
        <mxCell id="x_ISdP9tk19q-jWjNSfE-18" value="[book found]" style="text;html=1;align=center;verticalAlign=middle;resizable=0;points=[];autosize=1;strokeColor=none;fillColor=none;" parent="IQUt191S6wUq-JM19sTi-1" vertex="1">
          <mxGeometry x="48" y="384" width="90" height="30" as="geometry" />
        </mxCell>
        <mxCell id="x_ISdP9tk19q-jWjNSfE-19" value="[book not found]" style="text;html=1;align=center;verticalAlign=middle;resizable=0;points=[];autosize=1;strokeColor=none;fillColor=none;" parent="IQUt191S6wUq-JM19sTi-1" vertex="1">
          <mxGeometry x="30" y="538" width="110" height="30" as="geometry" />
        </mxCell>
        <mxCell id="x_ISdP9tk19q-jWjNSfE-22" value="" style="endArrow=classic;html=1;rounded=0;" parent="IQUt191S6wUq-JM19sTi-1" edge="1">
          <mxGeometry width="50" height="50" relative="1" as="geometry">
            <mxPoint x="158" y="760" as="sourcePoint" />
            <mxPoint x="577" y="760" as="targetPoint" />
          </mxGeometry>
        </mxCell>
        <mxCell id="x_ISdP9tk19q-jWjNSfE-23" value="Log out()" style="text;html=1;align=center;verticalAlign=middle;resizable=0;points=[];autosize=1;strokeColor=none;fillColor=none;" parent="IQUt191S6wUq-JM19sTi-1" vertex="1">
          <mxGeometry x="338" y="730" width="70" height="30" as="geometry" />
        </mxCell>
        <mxCell id="x_ISdP9tk19q-jWjNSfE-24" value="" style="html=1;points=[[0,0,0,0,5],[0,1,0,0,-5],[1,0,0,0,5],[1,1,0,0,-5]];perimeter=orthogonalPerimeter;outlineConnect=0;targetShapes=umlLifeline;portConstraint=eastwest;newEdgeStyle={&quot;curved&quot;:0,&quot;rounded&quot;:0};fillColor=#1ba1e2;container=0;fontColor=#ffffff;strokeColor=#006EAF;" parent="IQUt191S6wUq-JM19sTi-1" vertex="1">
          <mxGeometry x="577" y="77" width="10" height="693" as="geometry" />
        </mxCell>
        <mxCell id="x_ISdP9tk19q-jWjNSfE-25" value="" style="endArrow=classic;html=1;rounded=0;" parent="IQUt191S6wUq-JM19sTi-1" target="x_ISdP9tk19q-jWjNSfE-24" edge="1">
          <mxGeometry width="50" height="50" relative="1" as="geometry">
            <mxPoint x="158" y="107" as="sourcePoint" />
            <mxPoint x="573" y="107" as="targetPoint" />
          </mxGeometry>
        </mxCell>
        <mxCell id="x_ISdP9tk19q-jWjNSfE-26" value="Open the system()" style="text;html=1;align=center;verticalAlign=middle;resizable=0;points=[];autosize=1;strokeColor=none;fillColor=none;" parent="IQUt191S6wUq-JM19sTi-1" vertex="1">
          <mxGeometry x="300" y="67" width="120" height="30" as="geometry" />
        </mxCell>
        <mxCell id="x_ISdP9tk19q-jWjNSfE-27" value="" style="endArrow=classic;html=1;rounded=0;" parent="IQUt191S6wUq-JM19sTi-1" edge="1">
          <mxGeometry width="50" height="50" relative="1" as="geometry">
            <mxPoint x="157" y="152" as="sourcePoint" />
            <mxPoint x="727" y="152" as="targetPoint" />
          </mxGeometry>
        </mxCell>
        <mxCell id="x_ISdP9tk19q-jWjNSfE-28" value="Log in into the system&lt;div&gt;(username,password)&lt;/div&gt;" style="text;html=1;align=center;verticalAlign=middle;resizable=0;points=[];autosize=1;strokeColor=none;fillColor=none;" parent="IQUt191S6wUq-JM19sTi-1" vertex="1">
          <mxGeometry x="292" y="108" width="140" height="40" as="geometry" />
        </mxCell>
        <mxCell id="x_ISdP9tk19q-jWjNSfE-29" value="" style="rounded=0;whiteSpace=wrap;html=1;fillColor=none;movable=1;resizable=1;rotatable=1;deletable=1;editable=1;locked=0;connectable=1;" parent="IQUt191S6wUq-JM19sTi-1" vertex="1">
          <mxGeometry x="10" y="168" width="750" height="70" as="geometry" />
        </mxCell>
        <mxCell id="x_ISdP9tk19q-jWjNSfE-30" value="opt" style="text;html=1;align=center;verticalAlign=middle;resizable=0;points=[];autosize=1;strokeColor=none;fillColor=none;" parent="IQUt191S6wUq-JM19sTi-1" vertex="1">
          <mxGeometry y="162" width="40" height="30" as="geometry" />
        </mxCell>
        <mxCell id="x_ISdP9tk19q-jWjNSfE-31" value="[invalid login credentials]" style="text;html=1;align=center;verticalAlign=middle;resizable=0;points=[];autosize=1;strokeColor=none;fillColor=none;" parent="IQUt191S6wUq-JM19sTi-1" vertex="1">
          <mxGeometry x="3" y="193" width="150" height="30" as="geometry" />
        </mxCell>
        <mxCell id="x_ISdP9tk19q-jWjNSfE-32" value="" style="html=1;labelBackgroundColor=#ffffff;startArrow=none;startFill=0;startSize=6;endArrow=classic;endFill=1;endSize=6;jettySize=auto;orthogonalLoop=1;strokeWidth=1;dashed=1;fontSize=14;rounded=0;" parent="IQUt191S6wUq-JM19sTi-1" edge="1">
          <mxGeometry width="60" height="60" relative="1" as="geometry">
            <mxPoint x="727" y="222" as="sourcePoint" />
            <mxPoint x="157" y="222" as="targetPoint" />
          </mxGeometry>
        </mxCell>
        <mxCell id="x_ISdP9tk19q-jWjNSfE-33" value="show errorr&amp;nbsp;message and ask&amp;nbsp;&lt;div&gt;to renter login credentials(message&amp;nbsp;)&lt;/div&gt;" style="text;align=center;verticalAlign=middle;resizable=0;points=[];autosize=1;strokeColor=none;fillColor=none;strokeWidth=1;perimeterSpacing=0;spacing=2;spacingTop=0;spacingLeft=0;spacingBottom=0;textShadow=1;html=1;" parent="IQUt191S6wUq-JM19sTi-1" vertex="1">
          <mxGeometry x="252" y="183" width="220" height="40" as="geometry" />
        </mxCell>
        <mxCell id="x_ISdP9tk19q-jWjNSfE-34" value="" style="endArrow=classic;html=1;rounded=0;" parent="IQUt191S6wUq-JM19sTi-1" edge="1">
          <mxGeometry width="50" height="50" relative="1" as="geometry">
            <mxPoint x="157" y="294" as="sourcePoint" />
            <mxPoint x="727" y="294" as="targetPoint" />
          </mxGeometry>
        </mxCell>
        <mxCell id="x_ISdP9tk19q-jWjNSfE-35" value="Reservations DS" style="shape=umlLifeline;perimeter=lifelinePerimeter;whiteSpace=wrap;html=1;container=0;dropTarget=0;collapsible=0;recursiveResize=0;outlineConnect=0;portConstraint=eastwest;newEdgeStyle={&quot;edgeStyle&quot;:&quot;elbowEdgeStyle&quot;,&quot;elbow&quot;:&quot;vertical&quot;,&quot;curved&quot;:0,&quot;rounded&quot;:0};" parent="IQUt191S6wUq-JM19sTi-1" vertex="1">
          <mxGeometry x="1054" y="27" width="100" height="743" as="geometry" />
        </mxCell>
        <mxCell id="x_ISdP9tk19q-jWjNSfE-36" value="" style="html=1;points=[[0,0,0,0,5],[0,1,0,0,-5],[1,0,0,0,5],[1,1,0,0,-5]];perimeter=orthogonalPerimeter;outlineConnect=0;targetShapes=umlLifeline;portConstraint=eastwest;newEdgeStyle={&quot;curved&quot;:0,&quot;rounded&quot;:0};fillColor=#1ba1e2;container=0;fontColor=#ffffff;strokeColor=#006EAF;" parent="x_ISdP9tk19q-jWjNSfE-35" vertex="1">
          <mxGeometry x="42.5" y="583" width="15" height="50" as="geometry" />
        </mxCell>
        <mxCell id="x_ISdP9tk19q-jWjNSfE-37" value="" style="endArrow=classic;html=1;rounded=0;" parent="IQUt191S6wUq-JM19sTi-1" edge="1">
          <mxGeometry width="50" height="50" relative="1" as="geometry">
            <mxPoint x="157" y="365" as="sourcePoint" />
            <mxPoint x="855" y="364.9999999999998" as="targetPoint" />
          </mxGeometry>
        </mxCell>
        <mxCell id="x_ISdP9tk19q-jWjNSfE-38" value="search for book(book info)" style="text;align=center;verticalAlign=middle;resizable=0;points=[];autosize=1;strokeColor=none;fillColor=none;" parent="IQUt191S6wUq-JM19sTi-1" vertex="1">
          <mxGeometry x="280" y="337" width="160" height="30" as="geometry" />
        </mxCell>
        <mxCell id="x_ISdP9tk19q-jWjNSfE-39" value="Orders DS" style="shape=umlLifeline;perimeter=lifelinePerimeter;whiteSpace=wrap;html=1;container=0;dropTarget=0;collapsible=0;recursiveResize=0;outlineConnect=0;portConstraint=eastwest;newEdgeStyle={&quot;edgeStyle&quot;:&quot;elbowEdgeStyle&quot;,&quot;elbow&quot;:&quot;vertical&quot;,&quot;curved&quot;:0,&quot;rounded&quot;:0};" parent="IQUt191S6wUq-JM19sTi-1" vertex="1">
          <mxGeometry x="930" y="27" width="100" height="743" as="geometry" />
        </mxCell>
        <mxCell id="x_ISdP9tk19q-jWjNSfE-40" value="" style="html=1;points=[[0,0,0,0,5],[0,1,0,0,-5],[1,0,0,0,5],[1,1,0,0,-5]];perimeter=orthogonalPerimeter;outlineConnect=0;targetShapes=umlLifeline;portConstraint=eastwest;newEdgeStyle={&quot;curved&quot;:0,&quot;rounded&quot;:0};fillColor=#1ba1e2;container=0;fontColor=#ffffff;strokeColor=#006EAF;" parent="x_ISdP9tk19q-jWjNSfE-39" vertex="1">
          <mxGeometry x="45" y="450" width="10" height="50" as="geometry" />
        </mxCell>
        <mxCell id="x_ISdP9tk19q-jWjNSfE-41" value="" style="html=1;labelBackgroundColor=#ffffff;startArrow=none;startFill=0;startSize=6;endArrow=classic;endFill=1;endSize=6;jettySize=auto;orthogonalLoop=1;strokeWidth=1;dashed=1;fontSize=14;rounded=0;" parent="IQUt191S6wUq-JM19sTi-1" edge="1">
          <mxGeometry width="60" height="60" relative="1" as="geometry">
            <mxPoint x="727" y="413" as="sourcePoint" />
            <mxPoint x="157" y="413" as="targetPoint" />
          </mxGeometry>
        </mxCell>
        <mxCell id="x_ISdP9tk19q-jWjNSfE-42" value="" style="html=1;labelBackgroundColor=#ffffff;startArrow=none;startFill=0;startSize=6;endArrow=classic;endFill=1;endSize=6;jettySize=auto;orthogonalLoop=1;strokeWidth=1;dashed=1;fontSize=14;rounded=0;" parent="IQUt191S6wUq-JM19sTi-1" edge="1">
          <mxGeometry width="60" height="60" relative="1" as="geometry">
            <mxPoint x="727" y="460" as="sourcePoint" />
            <mxPoint x="157" y="460" as="targetPoint" />
          </mxGeometry>
        </mxCell>
        <mxCell id="x_ISdP9tk19q-jWjNSfE-43" value="" style="endArrow=classic;html=1;rounded=0;" parent="IQUt191S6wUq-JM19sTi-1" edge="1">
          <mxGeometry width="50" height="50" relative="1" as="geometry">
            <mxPoint x="159" y="505" as="sourcePoint" />
            <mxPoint x="975" y="505" as="targetPoint" />
          </mxGeometry>
        </mxCell>
        <mxCell id="x_ISdP9tk19q-jWjNSfE-44" value="save into data store(book info)" style="text;align=center;verticalAlign=middle;resizable=0;points=[];autosize=1;strokeColor=none;fillColor=none;" parent="IQUt191S6wUq-JM19sTi-1" vertex="1">
          <mxGeometry x="270" y="470" width="180" height="30" as="geometry" />
        </mxCell>
        <mxCell id="x_ISdP9tk19q-jWjNSfE-46" value="" style="rounded=0;whiteSpace=wrap;html=1;fillColor=none;movable=1;resizable=1;rotatable=1;deletable=1;editable=1;locked=0;connectable=1;" parent="IQUt191S6wUq-JM19sTi-1" vertex="1">
          <mxGeometry x="13" y="381" width="1160" height="340" as="geometry" />
        </mxCell>
        <mxCell id="x_ISdP9tk19q-jWjNSfE-47" value="" style="rounded=0;whiteSpace=wrap;html=1;fillColor=none;movable=0;resizable=0;rotatable=0;deletable=0;editable=0;locked=1;connectable=0;" parent="IQUt191S6wUq-JM19sTi-1" vertex="1">
          <mxGeometry x="19" y="576" width="1111" height="124" as="geometry" />
        </mxCell>
        <mxCell id="x_ISdP9tk19q-jWjNSfE-48" value="opt" style="text;html=1;align=center;verticalAlign=middle;resizable=0;points=[];autosize=1;strokeColor=none;fillColor=none;" parent="IQUt191S6wUq-JM19sTi-1" vertex="1">
          <mxGeometry x="10" y="570" width="40" height="30" as="geometry" />
        </mxCell>
        <mxCell id="x_ISdP9tk19q-jWjNSfE-49" value="" style="endArrow=classic;html=1;rounded=0;exitX=1.3;exitY=0.779;exitDx=0;exitDy=0;exitPerimeter=0;" parent="IQUt191S6wUq-JM19sTi-1" edge="1">
          <mxGeometry width="50" height="50" relative="1" as="geometry">
            <mxPoint x="158" y="639.3269999999998" as="sourcePoint" />
            <mxPoint x="1098" y="639" as="targetPoint" />
          </mxGeometry>
        </mxCell>
        <mxCell id="x_ISdP9tk19q-jWjNSfE-50" value="[Reserve the the book]" style="text;html=1;align=center;verticalAlign=middle;resizable=0;points=[];autosize=1;strokeColor=none;fillColor=none;" parent="IQUt191S6wUq-JM19sTi-1" vertex="1">
          <mxGeometry x="14" y="599" width="140" height="30" as="geometry" />
        </mxCell>
        <mxCell id="x_ISdP9tk19q-jWjNSfE-51" value="insert book info into data store(book info)" style="text;align=center;verticalAlign=middle;resizable=0;points=[];autosize=1;strokeColor=none;fillColor=none;" parent="IQUt191S6wUq-JM19sTi-1" vertex="1">
          <mxGeometry x="250" y="600" width="240" height="30" as="geometry" />
        </mxCell>
        <mxCell id="x_ISdP9tk19q-jWjNSfE-54" value="" style="html=1;labelBackgroundColor=#ffffff;startArrow=none;startFill=0;startSize=6;endArrow=classic;endFill=1;endSize=6;jettySize=auto;orthogonalLoop=1;strokeWidth=1;dashed=1;fontSize=14;rounded=0;" parent="IQUt191S6wUq-JM19sTi-1" edge="1">
          <mxGeometry width="60" height="60" relative="1" as="geometry">
            <mxPoint x="727" y="690" as="sourcePoint" />
            <mxPoint x="157" y="690" as="targetPoint" />
          </mxGeometry>
        </mxCell>
        <mxCell id="x_ISdP9tk19q-jWjNSfE-55" value="specify the existence date of the book(date)" style="text;html=1;align=center;verticalAlign=middle;resizable=0;points=[];autosize=1;strokeColor=none;fillColor=none;" parent="IQUt191S6wUq-JM19sTi-1" vertex="1">
          <mxGeometry x="212" y="660" width="260" height="30" as="geometry" />
        </mxCell>
        <mxCell id="deXwX84McbJdCBk5J8F0-2" value="opt" style="text;html=1;align=center;verticalAlign=middle;resizable=0;points=[];autosize=1;strokeColor=none;fillColor=none;" parent="IQUt191S6wUq-JM19sTi-1" vertex="1">
          <mxGeometry x="10" y="298" width="40" height="30" as="geometry" />
        </mxCell>
        <mxCell id="deXwX84McbJdCBk5J8F0-3" value="[invalid entry data]" style="text;html=1;align=center;verticalAlign=middle;resizable=0;points=[];autosize=1;strokeColor=none;fillColor=none;fontSize=10;" parent="IQUt191S6wUq-JM19sTi-1" vertex="1">
          <mxGeometry x="15" y="317" width="100" height="30" as="geometry" />
        </mxCell>
        <mxCell id="deXwX84McbJdCBk5J8F0-4" value="" style="rounded=0;whiteSpace=wrap;html=1;fillColor=none;movable=1;resizable=1;rotatable=1;deletable=1;editable=1;locked=0;connectable=1;" parent="IQUt191S6wUq-JM19sTi-1" vertex="1">
          <mxGeometry x="19" y="305.5" width="751" height="34.5" as="geometry" />
        </mxCell>
        <mxCell id="deXwX84McbJdCBk5J8F0-5" value="" style="html=1;labelBackgroundColor=#ffffff;startArrow=none;startFill=0;startSize=6;endArrow=classic;endFill=1;endSize=6;jettySize=auto;orthogonalLoop=1;strokeWidth=1;dashed=1;fontSize=14;rounded=0;" parent="IQUt191S6wUq-JM19sTi-1" edge="1">
          <mxGeometry width="60" height="60" relative="1" as="geometry">
            <mxPoint x="727" y="328" as="sourcePoint" />
            <mxPoint x="157" y="328" as="targetPoint" />
          </mxGeometry>
        </mxCell>
        <mxCell id="deXwX84McbJdCBk5J8F0-6" value="&lt;font style=&quot;font-size: 13px;&quot;&gt;show errorr&amp;nbsp;message and ask&amp;nbsp;&lt;span style=&quot;background-color: initial;&quot;&gt;to renter book info(message&amp;nbsp;)&lt;/span&gt;&lt;/font&gt;" style="text;html=1;align=center;verticalAlign=middle;resizable=0;points=[];autosize=1;strokeColor=none;fillColor=none;" parent="IQUt191S6wUq-JM19sTi-1" vertex="1">
          <mxGeometry x="174" y="299.5" width="370" height="30" as="geometry" />
        </mxCell>
      </root>
    </mxGraphModel>
  </diagram>
</mxfile>
